<?xml version="1.0" encoding="utf-8"?>
<!-- Generator: Adobe Illustrator 19.0.0, SVG Export Plug-In . SVG Version: 6.00 Build 0)  -->
<svg version="1.1" id="Layer_1" xmlns="http://www.w3.org/2000/svg" xmlns:xlink="http://www.w3.org/1999/xlink" x="0px" y="0px"
	 viewBox="393 -329.8 935.5 809.8" style="enable-background:new 393 -329.8 935.5 809.8;" xml:space="preserve">
<style type="text/css">
	.st0{fill:#68C7EC;}
</style>
<g>
	<path class="st0" d="M521.9,480c-42.9,0-85.4,0-128.9,0c79.8-138.1,159.3-275.7,238.8-413.3c0.3,0.1,0.5,0.2,0.8,0.4
		C595.7,204.7,558.8,342.3,521.9,480z"/>
	<path class="st0" d="M1328.5,480c-143.5,0-286.3,0-429,0c-0.1-0.2-0.2-0.4-0.2-0.6c1.2-0.4,2.3-0.9,3.5-1.2
		c121-32.4,241.9-64.8,362.9-97.3c4.1-1.1,5.8-0.2,7.8,3.3c17.4,30.5,35,60.9,52.6,91.3C1326.8,476.7,1327.4,478,1328.5,480z"/>
	<path class="st0" d="M810.1-242c16.7-28.9,33.5-57.9,50.7-87.8C924.1-220.2,987-111.4,1050.4-1.6C969.9-82.2,890.2-161.9,810.1-242
		z"/>
</g>
</svg>
